# xmcd
#
# Track frame offsets:
#	150
#	10327
#	20415
#	35162
#	48385
#	59147
#	69240
#	81355
#	89280
#	104150
#
# Disc length: 1526 seconds
#
# Revision: 0
# Processed by: cddbd v1.5.1PL0 Copyright (c) Steve Scherf et al.
# Submitted via: dBpowerAMP V4.0
#
DISCID=8a05f40a
DTITLE=Leny Escudero - Pour une Amourette
DYEAR=1900
DGENRE=Chanson
TTITLE0=Pour une Amourette
TTITLE1=Quand on cesse d'aimer
TTITLE2=Parce que tu lui ressembles
TTITLE3=L'arbre de vie
TTITLE4=On avait fait
TTITLE5=La ballade à Sylvie
TTITLE6=Viens, je t'emmene faire un tour
TTITLE7=Rupture à cinq temps
TTITLE8=Vingt ans après
TTITLE9=Il faut vivre
EXTD=Leny Escudero
EXTT0=
EXTT1=
EXTT2=
EXTT3=
EXTT4=
EXTT5=
EXTT6=
EXTT7=
EXTT8=
EXTT9=
PLAYORDER=
